<svg xmlns="http://www.w3.org/2000/svg" width="1024" height="1024" viewBox="0 0 512 512"><path d="M396 157c7.4 41-11.7 86-31 121.3-2 3.7-3.8 7.4-5.6 11.1-5 10.2-10.8 19.8-16.6 29.5l-5.2 8.9A818.9 818.9 0 0 1 303 382l-3 4.4C272.3 426 272.3 426 263 426a92.2 92.2 0 0 1-14.1-16.3l-2-2.7a2013.6 2013.6 0 0 1-9-12.3A828.7 828.7 0 0 1 194 328l-2.4-3.9C155.5 265 114.5 193.6 145 124l1.5-3.5C201.7 2.2 371.3 37.2 396 157Zm-212.6 14.3c-5.2 43.3 20.6 80 61.3 93a83.2 83.2 0 0 0 96-46.2A85.4 85.4 0 0 0 331 132l-2-3h-2l-2-4a83.8 83.8 0 0 0-141.6 46.3ZM201 361c0 7.3-.7 6.8-7.9 8l-7.7 1.2C138.6 377 138.6 377 106 406c-.2 13.7 12.8 19.6 23 26-11.7 3.9-29.5-10.4-36-19-6.1-18.3 12.4-29.6 26.2-37.1 15.1-7.4 69.1-31.2 81.8-14.9Z"/><path d="M398 375c15.8 3.2 38.7 15.7 40.4 33.6-3.2 40.6-90.3 48.8-120.7 51.9l-5.7.5-4.2.4A368.3 368.3 0 0 1 206 456l-3.6-.7c-23-4.7-23-4.7-29.4-7.3 4.3-1 6.9-.8 11.2-.3l4.4.6 4.6.6c46.5 6 95.6 5.2 141.8-2.9l3-.5c26.2-4.6 55.2-9.6 77-25.5l3.5-2.5a19 19 0 0 0 3.8-22.3A63.4 63.4 0 0 0 398 376v-1Z"/></svg>